<mxfile host="app.diagrams.net" agent="Mozilla/5.0 (Macintosh; Intel Mac OS X 10_15_7) AppleWebKit/537.36 (KHTML, like Gecko) Chrome/131.0.0.0 Safari/537.36 Edg/131.0.0.0" version="24.9.2">
  <diagram name="Page-1" id="IBinYyCBUrGOJbIUU4mi">
    <mxGraphModel dx="858" dy="510" grid="1" gridSize="10" guides="1" tooltips="1" connect="1" arrows="1" fold="1" page="1" pageScale="1" pageWidth="850" pageHeight="1100" math="0" shadow="0">
      <root>
        <mxCell id="0" />
        <mxCell id="1" parent="0" />
        <mxCell id="ud7PdZYIxAGQ_uSuEWP6-3" style="rounded=0;orthogonalLoop=1;jettySize=auto;html=1;exitX=0.25;exitY=0;exitDx=0;exitDy=0;entryX=0.5;entryY=1;entryDx=0;entryDy=0;endArrow=none;endFill=0;" edge="1" parent="1" source="ud7PdZYIxAGQ_uSuEWP6-1" target="ud7PdZYIxAGQ_uSuEWP6-2">
          <mxGeometry relative="1" as="geometry" />
        </mxCell>
        <mxCell id="ud7PdZYIxAGQ_uSuEWP6-5" style="edgeStyle=none;shape=connector;rounded=0;orthogonalLoop=1;jettySize=auto;html=1;exitX=0.5;exitY=0;exitDx=0;exitDy=0;entryX=0.5;entryY=1;entryDx=0;entryDy=0;strokeColor=default;align=center;verticalAlign=middle;fontFamily=Helvetica;fontSize=11;fontColor=default;labelBackgroundColor=default;endArrow=none;endFill=0;" edge="1" parent="1" source="ud7PdZYIxAGQ_uSuEWP6-1" target="ud7PdZYIxAGQ_uSuEWP6-4">
          <mxGeometry relative="1" as="geometry" />
        </mxCell>
        <mxCell id="ud7PdZYIxAGQ_uSuEWP6-9" style="edgeStyle=none;shape=connector;rounded=0;orthogonalLoop=1;jettySize=auto;html=1;exitX=1;exitY=0.5;exitDx=0;exitDy=0;entryX=0;entryY=0.5;entryDx=0;entryDy=0;strokeColor=default;align=center;verticalAlign=middle;fontFamily=Helvetica;fontSize=11;fontColor=default;labelBackgroundColor=default;endArrow=none;endFill=0;startArrow=ERmandOne;startFill=0;" edge="1" parent="1" source="ud7PdZYIxAGQ_uSuEWP6-1" target="ud7PdZYIxAGQ_uSuEWP6-8">
          <mxGeometry relative="1" as="geometry" />
        </mxCell>
        <mxCell id="ud7PdZYIxAGQ_uSuEWP6-1" value="Department" style="whiteSpace=wrap;html=1;align=center;" vertex="1" parent="1">
          <mxGeometry x="310" y="280" width="100" height="40" as="geometry" />
        </mxCell>
        <mxCell id="ud7PdZYIxAGQ_uSuEWP6-2" value="&lt;u&gt;name&lt;/u&gt;" style="ellipse;whiteSpace=wrap;html=1;align=center;" vertex="1" parent="1">
          <mxGeometry x="270" y="230" width="70" height="30" as="geometry" />
        </mxCell>
        <mxCell id="ud7PdZYIxAGQ_uSuEWP6-4" value="work_type" style="ellipse;whiteSpace=wrap;html=1;align=center;" vertex="1" parent="1">
          <mxGeometry x="350" y="230" width="75" height="30" as="geometry" />
        </mxCell>
        <mxCell id="ud7PdZYIxAGQ_uSuEWP6-13" style="edgeStyle=none;shape=connector;rounded=0;orthogonalLoop=1;jettySize=auto;html=1;exitX=0.25;exitY=0;exitDx=0;exitDy=0;entryX=0.5;entryY=1;entryDx=0;entryDy=0;strokeColor=default;align=center;verticalAlign=middle;fontFamily=Helvetica;fontSize=11;fontColor=default;labelBackgroundColor=default;endArrow=none;endFill=0;" edge="1" parent="1" source="ud7PdZYIxAGQ_uSuEWP6-7" target="ud7PdZYIxAGQ_uSuEWP6-12">
          <mxGeometry relative="1" as="geometry" />
        </mxCell>
        <mxCell id="ud7PdZYIxAGQ_uSuEWP6-15" style="edgeStyle=none;shape=connector;rounded=0;orthogonalLoop=1;jettySize=auto;html=1;exitX=0.5;exitY=0;exitDx=0;exitDy=0;entryX=0.5;entryY=1;entryDx=0;entryDy=0;strokeColor=default;align=center;verticalAlign=middle;fontFamily=Helvetica;fontSize=11;fontColor=default;labelBackgroundColor=default;endArrow=none;endFill=0;" edge="1" parent="1" source="ud7PdZYIxAGQ_uSuEWP6-7" target="ud7PdZYIxAGQ_uSuEWP6-14">
          <mxGeometry relative="1" as="geometry" />
        </mxCell>
        <mxCell id="ud7PdZYIxAGQ_uSuEWP6-17" style="edgeStyle=none;shape=connector;rounded=0;orthogonalLoop=1;jettySize=auto;html=1;exitX=0.5;exitY=0;exitDx=0;exitDy=0;entryX=0;entryY=1;entryDx=0;entryDy=0;strokeColor=default;align=center;verticalAlign=middle;fontFamily=Helvetica;fontSize=11;fontColor=default;labelBackgroundColor=default;endArrow=none;endFill=0;" edge="1" parent="1" source="ud7PdZYIxAGQ_uSuEWP6-7" target="ud7PdZYIxAGQ_uSuEWP6-16">
          <mxGeometry relative="1" as="geometry" />
        </mxCell>
        <mxCell id="ud7PdZYIxAGQ_uSuEWP6-19" style="edgeStyle=none;shape=connector;rounded=0;orthogonalLoop=1;jettySize=auto;html=1;exitX=0.75;exitY=0;exitDx=0;exitDy=0;entryX=0.5;entryY=1;entryDx=0;entryDy=0;strokeColor=default;align=center;verticalAlign=middle;fontFamily=Helvetica;fontSize=11;fontColor=default;labelBackgroundColor=default;endArrow=none;endFill=0;" edge="1" parent="1" source="ud7PdZYIxAGQ_uSuEWP6-7" target="ud7PdZYIxAGQ_uSuEWP6-18">
          <mxGeometry relative="1" as="geometry" />
        </mxCell>
        <mxCell id="ud7PdZYIxAGQ_uSuEWP6-44" style="edgeStyle=none;shape=connector;rounded=0;orthogonalLoop=1;jettySize=auto;html=1;exitX=0.75;exitY=0;exitDx=0;exitDy=0;entryX=0;entryY=0;entryDx=0;entryDy=0;strokeColor=default;align=center;verticalAlign=middle;fontFamily=Helvetica;fontSize=11;fontColor=default;labelBackgroundColor=default;endArrow=none;endFill=0;" edge="1" parent="1" source="ud7PdZYIxAGQ_uSuEWP6-7" target="ud7PdZYIxAGQ_uSuEWP6-43">
          <mxGeometry relative="1" as="geometry" />
        </mxCell>
        <mxCell id="ud7PdZYIxAGQ_uSuEWP6-7" value="Employee" style="whiteSpace=wrap;html=1;align=center;fontFamily=Helvetica;fontSize=11;fontColor=default;labelBackgroundColor=default;" vertex="1" parent="1">
          <mxGeometry x="590" y="280" width="100" height="40" as="geometry" />
        </mxCell>
        <mxCell id="ud7PdZYIxAGQ_uSuEWP6-10" style="edgeStyle=none;shape=connector;rounded=0;orthogonalLoop=1;jettySize=auto;html=1;exitX=1;exitY=0.5;exitDx=0;exitDy=0;entryX=0;entryY=0.5;entryDx=0;entryDy=0;strokeColor=default;align=center;verticalAlign=middle;fontFamily=Helvetica;fontSize=11;fontColor=default;labelBackgroundColor=default;endArrow=ERoneToMany;endFill=0;" edge="1" parent="1" source="ud7PdZYIxAGQ_uSuEWP6-8" target="ud7PdZYIxAGQ_uSuEWP6-7">
          <mxGeometry relative="1" as="geometry" />
        </mxCell>
        <mxCell id="ud7PdZYIxAGQ_uSuEWP6-8" value="has" style="shape=rhombus;perimeter=rhombusPerimeter;whiteSpace=wrap;html=1;align=center;fontFamily=Helvetica;fontSize=11;fontColor=default;labelBackgroundColor=default;" vertex="1" parent="1">
          <mxGeometry x="460" y="280" width="80" height="40" as="geometry" />
        </mxCell>
        <mxCell id="ud7PdZYIxAGQ_uSuEWP6-12" value="name" style="ellipse;whiteSpace=wrap;html=1;align=center;fontFamily=Helvetica;fontSize=11;fontColor=default;labelBackgroundColor=default;" vertex="1" parent="1">
          <mxGeometry x="510" y="190" width="70" height="30" as="geometry" />
        </mxCell>
        <mxCell id="ud7PdZYIxAGQ_uSuEWP6-14" value="address" style="ellipse;whiteSpace=wrap;html=1;align=center;fontFamily=Helvetica;fontSize=11;fontColor=default;labelBackgroundColor=default;" vertex="1" parent="1">
          <mxGeometry x="570" y="155" width="70" height="35" as="geometry" />
        </mxCell>
        <mxCell id="ud7PdZYIxAGQ_uSuEWP6-16" value="phone" style="ellipse;whiteSpace=wrap;html=1;align=center;fontFamily=Helvetica;fontSize=11;fontColor=default;labelBackgroundColor=default;" vertex="1" parent="1">
          <mxGeometry x="630" y="187.5" width="70" height="35" as="geometry" />
        </mxCell>
        <mxCell id="ud7PdZYIxAGQ_uSuEWP6-18" value="&lt;u&gt;SSN&lt;/u&gt;" style="ellipse;whiteSpace=wrap;html=1;align=center;fontFamily=Helvetica;fontSize=11;fontColor=default;labelBackgroundColor=default;" vertex="1" parent="1">
          <mxGeometry x="700" y="155" width="70" height="35" as="geometry" />
        </mxCell>
        <mxCell id="ud7PdZYIxAGQ_uSuEWP6-25" style="edgeStyle=none;shape=connector;rounded=0;orthogonalLoop=1;jettySize=auto;html=1;exitX=0.5;exitY=0;exitDx=0;exitDy=0;strokeColor=default;align=center;verticalAlign=middle;fontFamily=Helvetica;fontSize=11;fontColor=default;labelBackgroundColor=default;endArrow=none;endFill=0;" edge="1" parent="1" source="ud7PdZYIxAGQ_uSuEWP6-20" target="ud7PdZYIxAGQ_uSuEWP6-24">
          <mxGeometry relative="1" as="geometry" />
        </mxCell>
        <mxCell id="ud7PdZYIxAGQ_uSuEWP6-20" value="Coordinator" style="whiteSpace=wrap;html=1;align=center;fontFamily=Helvetica;fontSize=11;fontColor=default;labelBackgroundColor=default;" vertex="1" parent="1">
          <mxGeometry x="480" y="370" width="100" height="40" as="geometry" />
        </mxCell>
        <mxCell id="ud7PdZYIxAGQ_uSuEWP6-26" style="edgeStyle=none;shape=connector;rounded=0;orthogonalLoop=1;jettySize=auto;html=1;exitX=0.5;exitY=0;exitDx=0;exitDy=0;entryX=0;entryY=0.05;entryDx=0;entryDy=0;strokeColor=default;align=center;verticalAlign=middle;fontFamily=Helvetica;fontSize=11;fontColor=default;labelBackgroundColor=default;endArrow=none;endFill=0;entryPerimeter=0;" edge="1" parent="1" source="ud7PdZYIxAGQ_uSuEWP6-21" target="ud7PdZYIxAGQ_uSuEWP6-47">
          <mxGeometry relative="1" as="geometry" />
        </mxCell>
        <mxCell id="ud7PdZYIxAGQ_uSuEWP6-30" style="edgeStyle=none;shape=connector;rounded=0;orthogonalLoop=1;jettySize=auto;html=1;exitX=0.5;exitY=1;exitDx=0;exitDy=0;entryX=0.5;entryY=0;entryDx=0;entryDy=0;strokeColor=default;align=center;verticalAlign=middle;fontFamily=Helvetica;fontSize=11;fontColor=default;labelBackgroundColor=default;endArrow=none;endFill=0;" edge="1" parent="1" source="ud7PdZYIxAGQ_uSuEWP6-21" target="ud7PdZYIxAGQ_uSuEWP6-29">
          <mxGeometry relative="1" as="geometry" />
        </mxCell>
        <mxCell id="ud7PdZYIxAGQ_uSuEWP6-21" value="Technician" style="whiteSpace=wrap;html=1;align=center;fontFamily=Helvetica;fontSize=11;fontColor=default;labelBackgroundColor=default;strokeColor=default;verticalAlign=middle;fillColor=default;" vertex="1" parent="1">
          <mxGeometry x="655" y="465" width="100" height="40" as="geometry" />
        </mxCell>
        <mxCell id="ud7PdZYIxAGQ_uSuEWP6-27" style="edgeStyle=none;shape=connector;rounded=0;orthogonalLoop=1;jettySize=auto;html=1;exitX=0.5;exitY=0;exitDx=0;exitDy=0;entryX=0;entryY=0.95;entryDx=0;entryDy=0;strokeColor=default;align=center;verticalAlign=middle;fontFamily=Helvetica;fontSize=11;fontColor=default;labelBackgroundColor=default;endArrow=none;endFill=0;entryPerimeter=0;" edge="1" parent="1" source="ud7PdZYIxAGQ_uSuEWP6-23" target="ud7PdZYIxAGQ_uSuEWP6-47">
          <mxGeometry relative="1" as="geometry" />
        </mxCell>
        <mxCell id="ud7PdZYIxAGQ_uSuEWP6-36" style="edgeStyle=none;shape=connector;rounded=0;orthogonalLoop=1;jettySize=auto;html=1;exitX=0.5;exitY=1;exitDx=0;exitDy=0;entryX=0.5;entryY=0;entryDx=0;entryDy=0;strokeColor=default;align=center;verticalAlign=middle;fontFamily=Helvetica;fontSize=11;fontColor=default;labelBackgroundColor=default;endArrow=none;endFill=0;" edge="1" parent="1" source="ud7PdZYIxAGQ_uSuEWP6-23" target="ud7PdZYIxAGQ_uSuEWP6-35">
          <mxGeometry relative="1" as="geometry" />
        </mxCell>
        <mxCell id="ud7PdZYIxAGQ_uSuEWP6-23" value="Assistant" style="whiteSpace=wrap;html=1;align=center;fontFamily=Helvetica;fontSize=11;fontColor=default;labelBackgroundColor=default;strokeColor=default;verticalAlign=middle;fillColor=default;" vertex="1" parent="1">
          <mxGeometry x="785" y="465" width="100" height="40" as="geometry" />
        </mxCell>
        <mxCell id="ud7PdZYIxAGQ_uSuEWP6-28" style="edgeStyle=none;shape=connector;rounded=0;orthogonalLoop=1;jettySize=auto;html=1;exitX=1;exitY=0.5;exitDx=0;exitDy=0;entryX=0.5;entryY=1;entryDx=0;entryDy=0;strokeColor=default;align=center;verticalAlign=middle;fontFamily=Helvetica;fontSize=11;fontColor=default;labelBackgroundColor=default;endArrow=none;endFill=0;" edge="1" parent="1" source="ud7PdZYIxAGQ_uSuEWP6-24" target="ud7PdZYIxAGQ_uSuEWP6-7">
          <mxGeometry relative="1" as="geometry" />
        </mxCell>
        <mxCell id="ud7PdZYIxAGQ_uSuEWP6-24" value="" style="triangle;whiteSpace=wrap;html=1;fontFamily=Helvetica;fontSize=11;fontColor=default;labelBackgroundColor=default;rotation=-90;" vertex="1" parent="1">
          <mxGeometry x="625" y="330" width="30" height="40" as="geometry" />
        </mxCell>
        <mxCell id="ud7PdZYIxAGQ_uSuEWP6-29" value="skill" style="ellipse;whiteSpace=wrap;html=1;align=center;fontFamily=Helvetica;fontSize=11;fontColor=default;labelBackgroundColor=default;" vertex="1" parent="1">
          <mxGeometry x="670" y="520" width="70" height="30" as="geometry" />
        </mxCell>
        <mxCell id="ud7PdZYIxAGQ_uSuEWP6-38" style="edgeStyle=none;shape=connector;rounded=0;orthogonalLoop=1;jettySize=auto;html=1;exitX=0;exitY=0.25;exitDx=0;exitDy=0;entryX=0.5;entryY=1;entryDx=0;entryDy=0;strokeColor=default;align=center;verticalAlign=middle;fontFamily=Helvetica;fontSize=11;fontColor=default;labelBackgroundColor=default;endArrow=none;endFill=0;" edge="1" parent="1" source="ud7PdZYIxAGQ_uSuEWP6-31" target="ud7PdZYIxAGQ_uSuEWP6-37">
          <mxGeometry relative="1" as="geometry" />
        </mxCell>
        <mxCell id="ud7PdZYIxAGQ_uSuEWP6-40" style="edgeStyle=none;shape=connector;rounded=0;orthogonalLoop=1;jettySize=auto;html=1;exitX=0.5;exitY=0;exitDx=0;exitDy=0;entryX=0.5;entryY=1;entryDx=0;entryDy=0;strokeColor=default;align=center;verticalAlign=middle;fontFamily=Helvetica;fontSize=11;fontColor=default;labelBackgroundColor=default;endArrow=none;endFill=0;" edge="1" parent="1" source="ud7PdZYIxAGQ_uSuEWP6-31" target="ud7PdZYIxAGQ_uSuEWP6-39">
          <mxGeometry relative="1" as="geometry" />
        </mxCell>
        <mxCell id="ud7PdZYIxAGQ_uSuEWP6-42" style="edgeStyle=none;shape=connector;rounded=0;orthogonalLoop=1;jettySize=auto;html=1;exitX=0.75;exitY=0;exitDx=0;exitDy=0;entryX=0;entryY=1;entryDx=0;entryDy=0;strokeColor=default;align=center;verticalAlign=middle;fontFamily=Helvetica;fontSize=11;fontColor=default;labelBackgroundColor=default;endArrow=none;endFill=0;" edge="1" parent="1" source="ud7PdZYIxAGQ_uSuEWP6-31" target="ud7PdZYIxAGQ_uSuEWP6-41">
          <mxGeometry relative="1" as="geometry" />
        </mxCell>
        <mxCell id="ud7PdZYIxAGQ_uSuEWP6-31" value="Project" style="whiteSpace=wrap;html=1;align=center;fontFamily=Helvetica;fontSize=11;fontColor=default;labelBackgroundColor=default;" vertex="1" parent="1">
          <mxGeometry x="230" y="410" width="100" height="40" as="geometry" />
        </mxCell>
        <mxCell id="ud7PdZYIxAGQ_uSuEWP6-34" style="edgeStyle=none;shape=connector;rounded=0;orthogonalLoop=1;jettySize=auto;html=1;exitX=0;exitY=0.5;exitDx=0;exitDy=0;entryX=0.5;entryY=1;entryDx=0;entryDy=0;strokeColor=default;align=center;verticalAlign=middle;fontFamily=Helvetica;fontSize=11;fontColor=default;labelBackgroundColor=default;endArrow=none;endFill=0;" edge="1" parent="1" source="ud7PdZYIxAGQ_uSuEWP6-32" target="ud7PdZYIxAGQ_uSuEWP6-33">
          <mxGeometry relative="1" as="geometry" />
        </mxCell>
        <mxCell id="ud7PdZYIxAGQ_uSuEWP6-32" value="Machine" style="whiteSpace=wrap;html=1;align=center;fontFamily=Helvetica;fontSize=11;fontColor=default;labelBackgroundColor=default;" vertex="1" parent="1">
          <mxGeometry x="200" y="510" width="100" height="40" as="geometry" />
        </mxCell>
        <mxCell id="ud7PdZYIxAGQ_uSuEWP6-33" value="&lt;u&gt;serial_number&lt;/u&gt;" style="ellipse;whiteSpace=wrap;html=1;align=center;fontFamily=Helvetica;fontSize=11;fontColor=default;labelBackgroundColor=default;" vertex="1" parent="1">
          <mxGeometry x="100" y="570" width="90" height="30" as="geometry" />
        </mxCell>
        <mxCell id="ud7PdZYIxAGQ_uSuEWP6-35" value="qualification" style="ellipse;whiteSpace=wrap;html=1;align=center;fontFamily=Helvetica;fontSize=11;fontColor=default;labelBackgroundColor=default;" vertex="1" parent="1">
          <mxGeometry x="800" y="520" width="70" height="30" as="geometry" />
        </mxCell>
        <mxCell id="ud7PdZYIxAGQ_uSuEWP6-37" value="starting_date" style="ellipse;whiteSpace=wrap;html=1;align=center;fontFamily=Helvetica;fontSize=11;fontColor=default;labelBackgroundColor=default;" vertex="1" parent="1">
          <mxGeometry x="120" y="360" width="100" height="40" as="geometry" />
        </mxCell>
        <mxCell id="ud7PdZYIxAGQ_uSuEWP6-39" value="expected_end_date" style="ellipse;whiteSpace=wrap;html=1;align=center;fontFamily=Helvetica;fontSize=11;fontColor=default;labelBackgroundColor=default;" vertex="1" parent="1">
          <mxGeometry x="230" y="350" width="100" height="40" as="geometry" />
        </mxCell>
        <mxCell id="ud7PdZYIxAGQ_uSuEWP6-41" value="title" style="ellipse;whiteSpace=wrap;html=1;align=center;fontFamily=Helvetica;fontSize=11;fontColor=default;labelBackgroundColor=default;" vertex="1" parent="1">
          <mxGeometry x="337.5" y="370" width="62.5" height="30" as="geometry" />
        </mxCell>
        <mxCell id="ud7PdZYIxAGQ_uSuEWP6-43" value="level" style="ellipse;whiteSpace=wrap;html=1;align=center;fontFamily=Helvetica;fontSize=11;fontColor=default;labelBackgroundColor=default;" vertex="1" parent="1">
          <mxGeometry x="710" y="240" width="70" height="35" as="geometry" />
        </mxCell>
        <mxCell id="ud7PdZYIxAGQ_uSuEWP6-46" style="edgeStyle=none;shape=connector;rounded=0;orthogonalLoop=1;jettySize=auto;html=1;exitX=0.5;exitY=0;exitDx=0;exitDy=0;entryX=0.5;entryY=1;entryDx=0;entryDy=0;strokeColor=default;align=center;verticalAlign=middle;fontFamily=Helvetica;fontSize=11;fontColor=default;labelBackgroundColor=default;endArrow=none;endFill=0;" edge="1" parent="1" source="ud7PdZYIxAGQ_uSuEWP6-45" target="ud7PdZYIxAGQ_uSuEWP6-24">
          <mxGeometry relative="1" as="geometry" />
        </mxCell>
        <mxCell id="ud7PdZYIxAGQ_uSuEWP6-45" value="worker" style="whiteSpace=wrap;html=1;align=center;fontFamily=Helvetica;fontSize=11;fontColor=default;labelBackgroundColor=default;strokeColor=default;verticalAlign=middle;fillColor=default;" vertex="1" parent="1">
          <mxGeometry x="720" y="367" width="100" height="40" as="geometry" />
        </mxCell>
        <mxCell id="ud7PdZYIxAGQ_uSuEWP6-48" style="edgeStyle=none;shape=connector;rounded=0;orthogonalLoop=1;jettySize=auto;html=1;exitX=1;exitY=0.5;exitDx=0;exitDy=0;entryX=0.5;entryY=1;entryDx=0;entryDy=0;strokeColor=default;align=center;verticalAlign=middle;fontFamily=Helvetica;fontSize=11;fontColor=default;labelBackgroundColor=default;endArrow=none;endFill=0;" edge="1" parent="1" source="ud7PdZYIxAGQ_uSuEWP6-47" target="ud7PdZYIxAGQ_uSuEWP6-45">
          <mxGeometry relative="1" as="geometry" />
        </mxCell>
        <mxCell id="ud7PdZYIxAGQ_uSuEWP6-47" value="" style="triangle;whiteSpace=wrap;html=1;fontFamily=Helvetica;fontSize=11;fontColor=default;labelBackgroundColor=default;rotation=-90;" vertex="1" parent="1">
          <mxGeometry x="755" y="420" width="30" height="40" as="geometry" />
        </mxCell>
      </root>
    </mxGraphModel>
  </diagram>
</mxfile>
